<svg xmlns="http://www.w3.org/2000/svg" viewBox="0 0 30 30">
  <defs>
    <linearGradient id="gearGrad" x1="0%" y1="0%" x2="100%" y2="100%">
      <stop offset="0%" style="stop-color:#3b82f6"/>
      <stop offset="100%" style="stop-color:#06b6d4"/>
    </linearGradient>
  </defs>
  <rect width="30" height="30" rx="6" fill="#0f172a"/>
  <g fill="url(#gearGrad)">
    <path d="M15 8.5c-.5 0-1 .05-1.5.15l-.7-1.75-1.9.75.7 1.75c-.4.3-.75.65-1.05 1.05l-1.75-.7-.75 1.9 1.75.7c-.1.5-.15 1-.15 1.5s.05 1 .15 1.5l-1.75.7.75 1.9 1.75-.7c.3.4.65.75 1.05 1.05l-.7 1.75 1.9.75.7-1.75c.5.1 1 .15 1.5.15s1-.05 1.5-.15l.7 1.75 1.9-.75-.7-1.75c.4-.3.75-.65 1.05-1.05l1.75.7.75-1.9-1.75-.7c.1-.5.15-1 .15-1.5s-.05-1-.15-1.5l1.75-.7-.75-1.9-1.75.7c-.3-.4-.65-.75-1.05-1.05l.7-1.75-1.9-.75-.7 1.75c-.5-.1-1-.15-1.5-.15z"/>
    <circle cx="15" cy="15" r="3" fill="#0f172a"/>
  </g>
</svg>
